<svg width="720" height="560" viewBox="0 0 720 560" fill="none" xmlns="http://www.w3.org/2000/svg">
  <defs>
    <linearGradient id="bg" x1="90" y1="40" x2="620" y2="500" gradientUnits="userSpaceOnUse">
      <stop stop-color="#1D4156"/>
      <stop offset="1" stop-color="#2E6C81"/>
    </linearGradient>
    <linearGradient id="card" x1="120" y1="90" x2="540" y2="360" gradientUnits="userSpaceOnUse">
      <stop stop-color="#FFFFFF" stop-opacity="0.2"/>
      <stop offset="1" stop-color="#FFFFFF" stop-opacity="0.06"/>
    </linearGradient>
    <linearGradient id="accent" x1="458" y1="198" x2="560" y2="372" gradientUnits="userSpaceOnUse">
      <stop stop-color="#4F8CFF"/>
      <stop offset="1" stop-color="#51D2C2"/>
    </linearGradient>
    <linearGradient id="skin" x1="434" y1="210" x2="518" y2="346" gradientUnits="userSpaceOnUse">
      <stop stop-color="#FFC7A6"/>
      <stop offset="1" stop-color="#F39C79"/>
    </linearGradient>
    <linearGradient id="laptop" x1="402" y1="324" x2="536" y2="396" gradientUnits="userSpaceOnUse">
      <stop stop-color="#F9FCFF"/>
      <stop offset="1" stop-color="#DCE7F7"/>
    </linearGradient>
  </defs>

  <rect x="16" y="16" width="688" height="528" rx="40" fill="url(#bg)"/>
  <path d="M104 94C179 58 282 44 368 85C465 131 531 102 616 66" stroke="white" stroke-opacity="0.07" stroke-width="2"/>
  <path d="M99 155C145 112 233 95 320 126C416 161 504 173 608 120" stroke="white" stroke-opacity="0.05" stroke-width="2"/>
  <circle cx="598" cy="108" r="98" fill="#FFFFFF" fill-opacity="0.04"/>
  <circle cx="142" cy="442" r="116" fill="#FFFFFF" fill-opacity="0.04"/>

  <rect x="78" y="82" width="282" height="178" rx="28" fill="url(#card)" stroke="white" stroke-opacity="0.1"/>
  <rect x="102" y="110" width="102" height="16" rx="8" fill="white" fill-opacity="0.16"/>
  <rect x="102" y="142" width="196" height="14" rx="7" fill="white" fill-opacity="0.11"/>
  <rect x="102" y="170" width="170" height="14" rx="7" fill="white" fill-opacity="0.08"/>
  <rect x="102" y="208" width="118" height="28" rx="14" fill="#51D2C2" fill-opacity="0.88"/>
  <rect x="238" y="208" width="74" height="28" rx="14" fill="white" fill-opacity="0.12"/>
  <circle cx="306" cy="115" r="8" fill="#51D2C2"/>

  <rect x="90" y="304" width="180" height="124" rx="28" fill="#FFFFFF" fill-opacity="0.92"/>
  <rect x="116" y="332" width="84" height="12" rx="6" fill="#D7E3F4"/>
  <rect x="116" y="356" width="124" height="10" rx="5" fill="#E6EEF9"/>
  <rect x="116" y="377" width="102" height="10" rx="5" fill="#E6EEF9"/>
  <rect x="116" y="398" width="86" height="10" rx="5" fill="#E6EEF9"/>
  <rect x="203" y="328" width="42" height="42" rx="14" fill="#EEF4FF"/>
  <circle cx="224" cy="349" r="10" fill="#4F8CFF" fill-opacity="0.55"/>

  <rect x="286" y="332" width="154" height="72" rx="24" fill="#FFFFFF" fill-opacity="0.1" stroke="white" stroke-opacity="0.12"/>
  <rect x="308" y="356" width="88" height="10" rx="5" fill="white" fill-opacity="0.16"/>
  <rect x="308" y="378" width="58" height="10" rx="5" fill="white" fill-opacity="0.1"/>
  <rect x="382" y="374" width="36" height="18" rx="9" fill="#51D2C2" fill-opacity="0.86"/>

  <circle cx="492" cy="214" r="56" fill="url(#accent)"/>
  <circle cx="490" cy="211" r="40" fill="#F7FBFF"/>
  <circle cx="488" cy="208" r="28" fill="url(#skin)"/>
  <path d="M448 288C463 255 516 250 536 286V374H448V288Z" fill="#F7FBFF"/>
  <path d="M454 286C470 258 512 258 528 286V374H454V286Z" fill="#FFFFFF"/>
  <path d="M460 286C476 264 504 264 520 286V374H460V286Z" fill="#F5F8FF"/>

  <path d="M420 324H552C561 324 568 331 568 340V386C568 395 561 402 552 402H420C411 402 404 395 404 386V340C404 331 411 324 420 324Z" fill="url(#laptop)"/>
  <rect x="420" y="336" width="132" height="10" rx="5" fill="#BDD0EB"/>
  <rect x="420" y="356" width="96" height="8" rx="4" fill="#D7E3F4"/>
  <rect x="420" y="372" width="76" height="8" rx="4" fill="#D7E3F4"/>
  <path d="M386 404H586L568 420H404L386 404Z" fill="#D3E0F2"/>

  <path d="M573 198L588 188L599 200" stroke="white" stroke-width="5" stroke-linecap="round" stroke-linejoin="round"/>
  <path d="M577 254L597 258L590 279" stroke="white" stroke-width="4" stroke-linecap="round" stroke-linejoin="round" stroke-opacity="0.9"/>
  <path d="M366 282L392 268L411 290" stroke="white" stroke-width="4" stroke-linecap="round" stroke-linejoin="round" stroke-opacity="0.92"/>
  <circle cx="598" cy="302" r="10" stroke="white" stroke-opacity="0.8" stroke-width="4"/>
  <path d="M614 326L626 338L650 314" stroke="white" stroke-width="4" stroke-linecap="round" stroke-linejoin="round" stroke-opacity="0.9"/>
</svg>
